<svg xmlns="http://www.w3.org/2000/svg" width="28" height="18" viewBox="0 0 28 18">
    <path fill="#FFF" fill-rule="evenodd" d="M24.004 17.008H8.996l-8-7.968V7.999l8-7.999h15.008a3 3 0 0 1 3 3v11.008a3 3 0 0 1-3 3zm1.017-12.9a2.117 2.117 0 0 0-2.117-2.116H10.132L4.015 7.931v1.052l6.117 6.035h12.772A2.117 2.117 0 0 0 25.02 12.9V4.11zm-7.792 4.324l1.042 1.041a.828.828 0 0 1-1.172 1.172l-1.04-1.042-1.175 1.175a.81.81 0 1 1-1.145-1.145l1.175-1.174-1.035-1.035a.828.828 0 1 1 1.171-1.171l1.035 1.035 1.062-1.062A.81.81 0 0 1 18.29 7.37L17.23 8.432z"/>
</svg>
