<svg xmlns="http://www.w3.org/2000/svg" width="162" height="25" viewBox="0 0 162 25">
    <g fill="#FFF" fill-rule="evenodd">
        <path d="M89.202 11.079a8.668 8.668 0 0 0-4.547-3.1l-.066-.02h-.07c-.02 0-.048-.004-.08-.004a1.48 1.48 0 0 0-1.596 1.05v.005a1.473 1.473 0 0 0 1.002 1.801l.015.005a5.761 5.761 0 0 1 4.184 5.516c0 3.157-2.575 5.727-5.742 5.727a5.702 5.702 0 0 1-4.086-1.707 1.458 1.458 0 0 0-1.04-.427c-.391 0-.758.15-1.036.422a1.424 1.424 0 0 0-.442 1.032c0 .394.155.76.437 1.032a8.616 8.616 0 0 0 6.167 2.556c4.787 0 8.68-3.884 8.68-8.654a8.63 8.63 0 0 0-1.78-5.234zM77.496 13.213a5.796 5.796 0 0 1 3.309-2.41c.372-.104.687-.343.885-.676.202-.343.254-.737.15-1.112l-.004-.019c-.208-.638-.777-1.064-1.427-1.064-.113 0-.23.014-.367.051l-.01.005a8.608 8.608 0 0 0-4.989 3.635 1.418 1.418 0 0 0-.207 1.102c.08.375.306.704.631.924.235.155.522.24.805.24.494-.01.965-.263 1.224-.676zM66.626 7.605h-3.631c-.817 0-1.481.65-1.481 1.448 0 .798.664 1.448 1.48 1.448h3.632c1.329 0 2.416 1.048 2.416 2.343v6.612c0 1.29-1.083 2.344-2.412 2.344h-3.645c-1.329 0-2.416-1.049-2.416-2.344l-.005-18.013V1.43A1.475 1.475 0 0 0 59.084 0c-.817 0-1.481.65-1.481 1.448l.004 18.013c0 2.886 2.412 5.234 5.378 5.234h3.645c2.962 0 5.373-2.352 5.373-5.239v-6.612c0-2.89-2.416-5.239-5.377-5.239zM49.663 7.622c-1.42 0-2.743.56-3.71 1.55a5.156 5.156 0 0 0-3.71-1.55c-2.851 0-5.169 2.29-5.169 5.103l.005 10.527c0 .795.654 1.443 1.458 1.443.803 0 1.458-.648 1.458-1.443l-.005-10.527c0-1.23 1.01-2.234 2.252-2.234 1.243 0 2.257.999 2.257 2.23l.005 10.526c0 .796.654 1.443 1.458 1.443.804 0 1.458-.647 1.458-1.443l-.005-10.526c0-1.231 1.01-2.235 2.253-2.235s2.257 1 2.257 2.23l.004 10.526c0 .796.654 1.444 1.458 1.444.804 0 1.458-.648 1.458-1.444l-.005-10.526c-.004-2.808-2.327-5.094-5.177-5.094zM28.634 7.622h-3.39c-2.937 0-5.328 2.346-5.328 5.225v6.628c0 2.878 2.391 5.22 5.333 5.22h3.39c.81 0 1.468-.648 1.468-1.444 0-.796-.659-1.444-1.468-1.444h-3.39c-1.318 0-2.396-1.046-2.396-2.337v-6.628c0-1.286 1.074-2.337 2.392-2.337h3.389c1.177 0 2.132.94 2.132 2.092 0 1.157-.955 2.097-2.127 2.097h-3.46c-.81 0-1.469.648-1.469 1.444 0 .796.659 1.444 1.469 1.444h3.46c2.796 0 5.065-2.236 5.065-4.985s-2.274-4.975-5.07-4.975zM16.592 7.622h-3.19v.047c-2.195.25-3.904 2.089-3.904 4.319l.005 11.544c0 .81.667 1.468 1.485 1.468.82 0 1.486-.659 1.486-1.468l-.005-11.544c0-.786.648-1.426 1.443-1.43h2.68c.819 0 1.485-.66 1.485-1.468 0-.814-.666-1.473-1.485-1.468z"/>
        <g>
            <path d="M5.01 21.266c-1.257-1.273-1.98-3.012-1.98-4.765l-.004-7.217V9.27a1.52 1.52 0 0 0-1.51-1.455c-.823 0-1.492.653-1.492 1.455l.005 7.217c0 2.545 1.004 4.951 2.82 6.779l1.291 1.291a1.53 1.53 0 0 0 2.099.051l.01-.009c.291-.27.458-.648.463-1.04a1.357 1.357 0 0 0-.416-1.007L5.01 21.266zM1.64 5.018c.889 0 1.616-.708 1.616-1.576 0-.867-.727-1.575-1.616-1.575-.89 0-1.616.708-1.616 1.575 0 .868.727 1.576 1.616 1.576z"/>
        </g>
        <path fill-rule="nonzero" d="M108.64 24.192c-2.16 0-3.796-.568-4.908-1.704-1.112-1.136-1.668-2.808-1.668-5.016V7.08h1.488v10.56c0 3.488 1.696 5.232 5.088 5.232 1.68 0 2.948-.44 3.804-1.32.856-.88 1.284-2.184 1.284-3.912V7.08h1.464v10.392c0 2.208-.556 3.88-1.668 5.016-1.112 1.136-2.74 1.704-4.884 1.704zm15.88 0c-1.328 0-2.504-.18-3.528-.54a7.668 7.668 0 0 1-2.736-1.668l.624-1.176c.848.752 1.7 1.284 2.556 1.596.856.312 1.884.468 3.084.468 1.424 0 2.532-.292 3.324-.876.792-.584 1.188-1.404 1.188-2.46 0-.624-.192-1.132-.576-1.524-.384-.392-.872-.696-1.464-.912-.592-.216-1.384-.436-2.376-.66-1.312-.288-2.372-.584-3.18-.888a5.205 5.205 0 0 1-2.052-1.38c-.56-.616-.84-1.444-.84-2.484 0-.96.248-1.8.744-2.52s1.196-1.28 2.1-1.68c.904-.4 1.964-.6 3.18-.6 1.152 0 2.22.188 3.204.564a7.205 7.205 0 0 1 2.556 1.644l-.624 1.176c-.8-.72-1.608-1.244-2.424-1.572-.816-.328-1.72-.492-2.712-.492-1.424 0-2.536.304-3.336.912-.8.608-1.2 1.456-1.2 2.544 0 .944.348 1.644 1.044 2.1.696.456 1.716.844 3.06 1.164l.624.144c1.296.32 2.32.616 3.072.888a4.719 4.719 0 0 1 1.908 1.26c.52.568.78 1.332.78 2.292 0 .928-.248 1.744-.744 2.448s-1.196 1.252-2.1 1.644c-.904.392-1.956.588-3.156.588zm14.368 0c-1.328 0-2.504-.18-3.528-.54a7.668 7.668 0 0 1-2.736-1.668l.624-1.176c.848.752 1.7 1.284 2.556 1.596.856.312 1.884.468 3.084.468 1.424 0 2.532-.292 3.324-.876.792-.584 1.188-1.404 1.188-2.46 0-.624-.192-1.132-.576-1.524-.384-.392-.872-.696-1.464-.912-.592-.216-1.384-.436-2.376-.66-1.312-.288-2.372-.584-3.18-.888a5.205 5.205 0 0 1-2.052-1.38c-.56-.616-.84-1.444-.84-2.484 0-.96.248-1.8.744-2.52s1.196-1.28 2.1-1.68c.904-.4 1.964-.6 3.18-.6 1.152 0 2.22.188 3.204.564a7.205 7.205 0 0 1 2.556 1.644l-.624 1.176c-.8-.72-1.608-1.244-2.424-1.572-.816-.328-1.72-.492-2.712-.492-1.424 0-2.536.304-3.336.912-.8.608-1.2 1.456-1.2 2.544 0 .944.348 1.644 1.044 2.1.696.456 1.716.844 3.06 1.164l.624.144c1.296.32 2.32.616 3.072.888a4.719 4.719 0 0 1 1.908 1.26c.52.568.78 1.332.78 2.292 0 .928-.248 1.744-.744 2.448s-1.196 1.252-2.1 1.644c-.904.392-1.956.588-3.156.588zM148 7.08h5.448c2.688 0 4.76.732 6.216 2.196 1.456 1.464 2.184 3.548 2.184 6.252 0 2.704-.732 4.792-2.196 6.264-1.464 1.472-3.532 2.208-6.204 2.208H148V7.08zm5.376 15.624c2.288 0 4.012-.6 5.172-1.8 1.16-1.2 1.74-2.992 1.74-5.376 0-4.768-2.304-7.152-6.912-7.152h-3.888v14.328h3.888z"/>
    </g>
</svg>
